<svg width="158" height="51" viewBox="0 0 158 51" fill="none" xmlns="http://www.w3.org/2000/svg">
<path fill-rule="evenodd" clip-rule="evenodd" d="M25.1427 0.950845C11.5112 0.950845 0.460713 11.9427 0.460713 25.5017C0.460713 39.0598 11.5112 50.0511 25.1427 50.0511C38.7738 50.0511 49.8243 39.0598 49.8243 25.5017C49.8243 11.9427 38.7738 0.950845 25.1427 0.950845ZM0.00842285 25.5017C0.00842285 11.6942 11.2614 0.500977 25.1427 0.500977C39.0236 0.500977 50.2766 11.6942 50.2766 25.5017C50.2766 39.3083 39.0236 50.501 25.1427 50.501C11.2614 50.501 0.00842285 39.3083 0.00842285 25.5017Z" fill="white"/>
<path d="M37.925 24.144C37.5662 24.144 37.2753 24.4334 37.2753 24.7904C37.2753 25.1474 37.5662 25.4367 37.925 25.4367C38.284 25.4367 38.5749 25.1474 38.5749 24.7904C38.5749 24.4334 38.2839 24.144 37.925 24.144ZM37.8095 24.8417C37.708 24.8417 37.6267 24.7608 37.6267 24.6603C37.6267 24.5597 37.708 24.4789 37.8095 24.4789C37.9103 24.4789 37.9914 24.5597 37.9914 24.6603C37.9914 24.7608 37.9103 24.8417 37.8095 24.8417Z" fill="white"/>
<path d="M12.3505 24.1606C11.9917 24.1606 11.7007 24.45 11.7007 24.807C11.7007 25.164 11.9917 25.4533 12.3505 25.4533C12.7095 25.4533 13.0004 25.164 13.0004 24.807C13.0004 24.45 12.7095 24.1606 12.3505 24.1606ZM12.4755 24.8417C12.3751 24.8417 12.2931 24.7609 12.2931 24.6603C12.2931 24.5598 12.3752 24.4789 12.4755 24.4789C12.5767 24.4789 12.6582 24.5598 12.6582 24.6603C12.6582 24.7609 12.5766 24.8417 12.4755 24.8417Z" fill="white"/>
<path d="M25.1432 3.01679H25.1419C18.9008 3.01679 13.2498 5.53459 9.15886 9.60354C5.06824 13.6731 2.53621 19.2937 2.53621 25.5013H2.53757V25.5027H2.53621C2.53621 31.7099 5.06847 37.3306 9.15886 41.3997C13.2498 45.4697 18.9006 47.986 25.1419 47.986V47.9856H25.1432V47.986C31.3843 47.986 37.0348 45.4696 41.1264 41.3997C45.2182 37.3306 47.7485 31.71 47.7489 25.5019H47.7485V25.5015H47.7489C47.7485 19.2938 45.218 13.6735 41.1264 9.60366C37.0356 5.53448 31.3844 3.01679 25.1432 3.01679ZM25.1428 2.71886H25.1432V2.71976C31.4666 2.71976 37.1934 5.27007 41.3384 9.39267C45.483 13.5157 48.0472 19.2103 48.0472 25.5013H48.0485V25.5018H48.0472C48.0472 31.7916 45.483 37.488 41.3384 41.6105C37.1936 45.7331 31.4679 48.2834 25.1432 48.2834V48.2847H25.1419V48.2834C18.8186 48.2834 13.0917 45.7331 8.94685 41.6105C4.80116 37.488 2.23804 31.7915 2.23804 25.5026V25.5012C2.23804 19.2109 4.80116 13.5156 8.94821 9.39255C13.093 5.26996 18.8186 2.71965 25.1419 2.71965V2.71875L25.1428 2.71886Z" fill="white"/>
<path fill-rule="evenodd" clip-rule="evenodd" d="M10.4774 10.914C10.9784 10.4157 11.5056 9.94225 12.0561 9.49658L12.4843 10.0199C11.9518 10.451 11.4419 10.909 10.9572 11.3912C8.09922 14.2348 6.09808 17.9303 5.37636 22.0609L4.70795 21.9454C5.45436 17.6733 7.52383 13.8528 10.4774 10.9141L10.4774 10.914Z" fill="white"/>
<path fill-rule="evenodd" clip-rule="evenodd" d="M14.3954 7.85636C17.086 6.20284 20.662 5.1644 23.7489 4.90186L23.8067 5.57421C20.8081 5.82924 17.3382 6.84107 14.7521 8.43043L14.3954 7.85636Z" fill="white"/>
<path fill-rule="evenodd" clip-rule="evenodd" d="M26.9026 4.94482C27.7485 5.01559 28.5799 5.13679 29.394 5.30569L29.2554 5.96628C28.4682 5.80295 27.6641 5.68572 26.8458 5.61725L26.9026 4.94482Z" fill="white"/>
<path fill-rule="evenodd" clip-rule="evenodd" d="M32.6431 6.27588C35.3395 7.32197 37.7623 8.91381 39.7737 10.9144C43.1723 14.2946 45.3959 18.8411 45.7879 23.8983L45.1115 23.9502C44.7324 19.0592 42.5823 14.662 39.294 11.3916L39.294 11.3916C37.3479 9.45586 35.0041 7.91616 32.3966 6.90455L32.6431 6.27588Z" fill="white"/>
<path d="M25.1428 2.71886H25.1432V2.71976C31.4666 2.71976 37.1934 5.27007 41.3384 9.39267C45.483 13.5157 48.0472 19.2103 48.0472 25.5013H48.0485V25.5018H48.0472C48.0472 31.7916 45.483 37.488 41.3384 41.6105C37.1936 45.7331 31.4679 48.2834 25.1432 48.2834V48.2847H25.1419V48.2834C18.8186 48.2834 13.0917 45.7331 8.94685 41.6105C4.80116 37.488 2.23804 31.7915 2.23804 25.5026V25.5012C2.23804 19.2109 4.80116 13.5156 8.94821 9.39255C13.093 5.26996 18.8186 2.71965 25.1419 2.71965V2.71875L25.1428 2.71886Z" stroke="white" stroke-width="0.252521" stroke-miterlimit="2.613"/>
<path d="M12.6291 38.9253L13.3927 39.9716L14.6288 39.572L13.8651 40.6183L14.6288 41.6636L13.3927 41.2634L12.6291 42.3101V41.017L11.3925 40.6183L12.6291 40.218V38.9253Z" fill="white"/>
<path d="M37.4423 39.1387L36.6786 40.185L35.4425 39.7851L36.2061 40.8314L35.4425 41.8768L36.6786 41.4777L37.4423 42.5233V41.2312L38.6788 40.8314L37.4423 40.4314V39.1387Z" fill="white"/>
<path d="M25.3504 12.2993H24.9352V24.5002H25.3504V12.2993Z" fill="white"/>
<path d="M22.4321 11.6932C22.5249 11.926 22.5802 12.2274 22.5802 12.556C22.5802 12.7713 22.5568 12.9743 22.5139 13.1543C23.2762 12.9751 24.0404 12.9066 24.8041 12.9909L24.1364 11.5452C23.8171 11.5452 23.5086 11.5592 23.2128 11.5869C22.9449 11.6119 22.6843 11.6475 22.4321 11.6932ZM21.8601 13.3345C21.8389 13.1017 21.7641 12.8411 21.6344 12.5864C21.5165 12.3548 21.3693 12.158 21.2127 12.0074C20.2763 12.3259 19.5117 12.7802 18.9102 13.2701V13.2705L18.8001 13.3618L18.695 13.4541C18.5152 13.6131 18.3534 13.7739 18.2091 13.9312L18.2037 13.9378L18.2023 13.9387V13.9396L18.201 13.94L18.1996 13.9423C17.3077 14.7844 16.1999 15.2949 15.1944 15.7593C14.55 16.0559 13.9491 16.3331 13.4851 16.6621C14.0469 16.4512 14.5875 16.3498 15.1436 16.2461C16.2147 16.0462 17.3384 15.8361 18.7416 14.7734L18.761 14.762C19.7939 14.1709 20.8262 13.6604 21.8601 13.3345ZM21.4913 11.9181C21.6253 12.0684 21.7541 12.2564 21.8627 12.4708C22.0027 12.7453 22.0875 13.0195 22.1171 13.2576L22.22 13.2295C22.2863 13.0309 22.3234 12.8011 22.3234 12.556C22.3234 12.2516 22.2655 11.97 22.1684 11.7446C21.934 11.7946 21.7086 11.8527 21.4913 11.9181ZM24.1843 11.2926H24.2179L24.3336 11.3663L25.126 13.085L25.141 13.1649C25.1313 13.2339 25.0659 13.2822 24.9971 13.2721C23.9847 13.1188 22.9706 13.2532 21.9553 13.5699C20.9351 13.8893 19.9132 14.3932 18.8916 14.9783C17.4422 16.0735 16.2892 16.2897 15.19 16.4941C14.4184 16.6386 13.6732 16.7775 12.8738 17.2255V17.2246L12.7344 17.2145L12.7114 17.0371C13.2086 16.3961 14.0991 15.9853 15.0884 15.5289C16.0769 15.0733 17.1666 14.5715 18.0265 13.7562L18.0279 13.7553C18.1789 13.5905 18.3446 13.4248 18.5261 13.2646L18.6347 13.1701L18.7487 13.0752C19.6016 12.3806 20.7685 11.7567 22.272 11.4663C22.5635 11.4092 22.8696 11.3653 23.1903 11.3354C23.508 11.3062 23.8398 11.2912 24.1843 11.2926Z" fill="white"/>
<path d="M18.6609 13.3146C18.6692 13.4833 18.6966 13.6656 18.7443 13.8518C18.833 14.1936 18.9748 14.4893 19.1365 14.6953C19.2143 14.6518 19.292 14.6087 19.3697 14.567C19.2089 14.3697 19.0729 14.1 18.992 13.7881C18.9297 13.5451 18.9097 13.3075 18.9258 13.0957L18.8291 13.1731L18.6609 13.3146Z" fill="white"/>
<path d="M18.1217 13.8399C18.1523 13.9603 18.1924 14.0838 18.2436 14.2089C18.3682 14.5156 18.5342 14.7748 18.7087 14.9566L18.8194 14.8736L18.9333 14.8091C18.7567 14.6369 18.596 14.3974 18.4806 14.1131C18.4118 13.9431 18.3646 13.7739 18.3397 13.6123C18.2635 13.6888 18.1915 13.7644 18.1217 13.8399Z" fill="white"/>
<path d="M15.0171 16.3062L25.1207 20.4665L25.0377 20.6668L14.9349 16.5056L15.0171 16.3062Z" fill="white"/>
<path d="M14.7825 15.8643L14.9759 16.4064L13.1619 16.8589L13.4031 16.5162L14.7825 15.8643Z" fill="white"/>
<path d="M27.8529 11.6932C27.7611 11.926 27.7057 12.2274 27.7057 12.556C27.7057 12.7713 27.7291 12.9743 27.7715 13.1543C27.0087 12.9751 26.2455 12.9066 25.4809 12.9909L26.1496 11.5452C26.468 11.5452 26.7759 11.5592 27.0723 11.5869C27.3406 11.6119 27.6003 11.6475 27.8529 11.6932ZM28.4245 13.3345C28.4458 13.1017 28.5208 12.8411 28.6506 12.5864C28.7686 12.3548 28.9157 12.158 29.0727 12.0074C30.0086 12.3259 30.7747 12.7802 31.3748 13.2701L31.3757 13.2705L31.4854 13.3618L31.5905 13.4541C31.7708 13.6131 31.9327 13.7739 32.0759 13.9312L32.0817 13.9378L32.0835 13.9387V13.9396L32.0844 13.94L32.0864 13.9423C32.9772 14.7844 34.0855 15.2949 35.0906 15.7593C35.7354 16.0559 36.3354 16.3331 36.8008 16.6621C36.2389 16.4512 35.6974 16.3498 35.1422 16.2461C34.0704 16.0462 32.9466 15.8361 31.5435 14.7734L31.5245 14.762C30.4916 14.1709 29.4589 13.6604 28.4245 13.3345ZM28.795 11.9181C28.6599 12.0684 28.5314 12.2564 28.4217 12.4708C28.2829 12.7453 28.1974 13.0195 28.1673 13.2576L28.0649 13.2295C27.9986 13.0309 27.9616 12.8011 27.9616 12.556C27.9616 12.2516 28.019 11.97 28.1171 11.7446C28.352 11.7946 28.5777 11.8527 28.795 11.9181ZM26.1003 11.2926H26.0676L25.9526 11.3663L25.1589 13.085L25.1432 13.1649C25.154 13.2339 25.2193 13.2822 25.2881 13.2721C26.3004 13.1188 27.3146 13.2532 28.3295 13.5699C29.3497 13.8893 30.3715 14.3932 31.3931 14.9783C32.8436 16.0735 33.9956 16.2897 35.0943 16.4941C35.8673 16.6386 36.6125 16.7775 37.4105 17.2255V17.2246L37.5505 17.2145L37.5739 17.0371C37.0761 16.3961 36.1857 15.9853 35.1967 15.5289C34.2083 15.0733 33.1195 14.5715 32.2582 13.7562L32.2569 13.7553C32.1058 13.5905 31.9401 13.4248 31.7597 13.2646L31.6501 13.1701L31.536 13.0752C30.6836 12.3806 29.5159 11.7567 28.0128 11.4663C27.7218 11.4092 27.4161 11.3653 27.0945 11.3354C26.777 11.3062 26.4448 11.2912 26.1003 11.2926Z" fill="white"/>
<path d="M31.6241 13.3146C31.6153 13.4833 31.5884 13.6656 31.5411 13.8518C31.453 14.1936 31.3101 14.4893 31.1489 14.6953C31.0711 14.6518 30.9925 14.6087 30.9154 14.567C31.0766 14.3697 31.2127 14.1 31.2931 13.7881C31.3554 13.5451 31.376 13.3075 31.3593 13.0957L31.4559 13.1731L31.6241 13.3146Z" fill="white"/>
<path d="M32.1634 13.8399C32.1338 13.9603 32.0923 14.0838 32.043 14.2089C31.9171 14.5156 31.7506 14.7748 31.5766 14.9566L31.466 14.8736L31.352 14.8091C31.5279 14.6369 31.6889 14.3974 31.8052 14.1131C31.874 13.9431 31.9202 13.7739 31.9456 13.6123C32.0216 13.6888 32.0941 13.7644 32.1634 13.8399Z" fill="white"/>
<path d="M35.268 16.3062L25.1649 20.4665L25.2479 20.6668L35.3511 16.5056L35.268 16.3062Z" fill="white"/>
<path d="M35.5027 15.8643L35.3092 16.4064L37.1232 16.8589L36.882 16.5162L35.5027 15.8643Z" fill="white"/>
<path d="M23.8658 11.4335L24.9961 9.55408C25.0447 9.47456 25.149 9.44824 25.2301 9.49604L25.2911 9.55891L26.4192 11.4335V11.6071L25.2885 13.4865C25.2398 13.566 25.1354 13.5923 25.0556 13.5445L24.9961 13.4865L23.8658 11.6071V11.4335Z" fill="white"/>
<path d="M25.1427 9.97021L24.2103 11.5201L25.1427 13.07L26.0756 11.5201L25.1427 9.97021Z" fill="white"/>
<path d="M26.7285 41.4104C27.9577 35.9382 24.9299 34.9136 26.4868 28.7961C26.5127 28.6933 26.5366 28.5906 26.5569 28.4863C26.579 28.3826 26.5968 28.278 26.6135 28.1726C26.6585 27.8749 26.6726 27.5954 26.677 27.3306C26.6965 26.1796 26.7141 25.275 27.6646 24.4895C27.9931 24.218 28.359 23.9799 28.7547 23.7667C32.044 21.9931 37.3648 21.9712 39.9387 19.2535C39.5517 18.3472 39.0823 17.4846 38.5399 16.673C36.467 20.4345 28.5003 18.6605 25.0975 22.9361C21.6181 18.3666 13.9263 20.294 11.7486 16.666C11.209 17.4735 10.7422 18.3319 10.3552 19.2334C14.807 23.0951 19.0583 21.0202 22.4253 24.5932C23.5476 25.6353 23.7835 26.9748 23.5686 28.4864C23.3323 30.1594 23.1048 31.5454 23.1275 33.1092C23.1417 34.088 23.1664 34.9381 23.5423 35.8238C24.1618 37.2829 24.3254 39.621 23.3986 41.3949C23.9714 41.4564 24.5532 41.488 25.1424 41.488V41.4871H25.1428V41.488C25.6786 41.4876 26.2064 41.4613 26.7285 41.4104Z" fill="white"/>
<path d="M25.1427 9.5162V9.51665H25.1418V9.5162C20.7055 9.5162 16.6878 11.3065 13.7794 14.1995C10.8701 17.0929 9.07138 21.0885 9.07138 25.5015V25.5024C9.07138 29.9148 10.8699 33.9118 13.7789 36.8039C16.688 39.697 20.7055 41.4877 25.1418 41.4877V41.4868H25.1432V41.4877C29.5794 41.4877 33.5972 39.697 36.5056 36.8039C39.4146 33.9118 41.214 29.9148 41.214 25.5024H41.2136V25.5015H41.214C41.214 21.0885 39.4146 17.0928 36.5065 14.1995C33.5971 11.3065 29.5796 9.5162 25.1427 9.5162ZM25.1427 9.22705V9.22795C29.6603 9.22795 33.7512 11.0503 36.7114 13.9946C39.6725 16.9395 41.5046 21.008 41.5046 25.5014V25.5023C41.5046 29.9952 39.6725 34.0639 36.7114 37.009C33.751 39.954 29.6603 41.7754 25.1429 41.7754V41.7767H25.1416V41.7754C20.6244 41.7754 16.5339 39.954 13.5729 37.009C10.6121 34.0637 8.78101 29.9954 8.78101 25.5023V25.5014C8.78101 21.008 10.6121 16.9394 13.5729 13.9946C16.534 11.0503 20.6243 9.22795 25.1416 9.22795V9.22705H25.1427Z" fill="white" stroke="white" stroke-width="0.505041"/>
<path d="M6.26279 18.5705C6.51901 18.4181 6.83652 18.345 7.05656 18.41C7.32511 18.4886 7.51326 18.7267 7.62192 19.124C7.98692 18.8239 8.31709 18.7172 8.61131 18.8036C8.83168 18.8682 8.99485 19.0348 9.1017 19.3031C9.20776 19.5707 9.20494 19.8936 9.09288 20.2706C8.99643 20.5865 8.83315 20.8624 8.6035 21.0991C8.37295 21.3355 7.65505 21.7054 6.44981 22.2079L6.41804 21.7993C7.17246 21.4448 7.66184 21.1913 7.88708 21.0379C8.1113 20.8846 8.26236 20.679 8.33937 20.4216C8.41185 20.1782 8.41886 19.9673 8.3613 19.7876C8.30386 19.6079 8.20888 19.4986 8.07636 19.4594C7.94237 19.4203 7.80069 19.4463 7.65234 19.5376C7.61661 19.752 7.57149 19.9501 7.51722 20.1329C7.47742 20.2665 7.4081 20.468 7.30826 20.7379L6.56888 20.6754C6.65278 20.4615 6.72198 20.2599 6.77829 20.07C6.98499 19.3768 6.92935 18.9836 6.61354 18.8905C6.48147 18.8518 6.15153 19.0748 5.99402 19.2461L6.26279 18.5705Z" fill="white"/>
<path d="M8.73994 13.769L11.6536 15.5236L11.56 15.676L10.6179 15.9638L9.43851 15.2464L8.88728 16.1427C8.62269 16.5732 8.65627 16.8896 8.98667 17.0908C9.25782 17.2555 9.77467 17.1892 10.537 16.8917L10.5873 17.2572C9.56176 17.6715 8.81084 17.733 8.33322 17.4426C8.10323 17.2997 7.96088 17.1109 7.90536 16.8767C7.85063 16.6421 7.88681 16.4211 8.01492 16.2137L8.8347 14.8791L8.30111 14.5717L8.73994 13.769Z" fill="white"/>
<path d="M11.2173 10.9673C11.3849 11.0477 11.6781 11.2372 11.8223 11.3791C12.2111 11.7645 12.317 12.2609 12.139 12.8689C12.6493 12.8117 13.3629 12.6624 14.279 12.4208L14.2401 12.7907C12.1882 13.3109 11.0106 13.4215 10.7092 13.1228C10.5147 12.9304 10.5396 12.7133 10.7824 12.4709C10.9013 12.3522 11.0933 12.2345 11.3596 12.1185C11.3278 11.9332 11.2664 11.7956 11.1763 11.7064C11.1052 11.6361 10.8762 11.5695 10.7358 11.5305L11.2173 10.9673Z" fill="white"/>
<path d="M18.0687 6.53174L19.5249 9.74763L19.3606 9.82095L18.4185 9.5372L18.1066 8.84575C17.956 9.0149 17.7781 9.14626 17.5705 9.23894C17.2621 9.37648 16.8987 9.41641 16.4799 9.35759C16.0611 9.29877 15.8037 9.16516 15.7059 8.95563L15.3004 8.05814L18.0687 6.53174ZM17.7753 8.11291L17.3184 7.05269L16.1455 7.68104L16.6446 8.78547C16.7479 9.01479 16.9112 9.0789 17.1349 8.97925C17.1928 8.95338 17.2562 8.90457 17.3249 8.83293C17.3928 8.76185 17.543 8.52196 17.7753 8.11291Z" fill="white"/>
<path d="M22.3013 5.56055L22.798 6.87473L21.4114 7.14004C21.158 7.1884 20.9513 7.27623 20.7905 7.40321C20.6287 7.53064 20.5618 7.66245 20.5883 7.79864C20.6316 8.02313 20.8262 8.10174 21.1711 8.03584C21.2842 8.01436 21.407 7.9778 21.5406 7.92731C21.5157 7.80303 21.5609 7.68966 21.6749 7.58732C21.7899 7.48542 21.9527 7.41378 22.1661 7.37341C22.4138 7.32595 22.6233 7.33832 22.7943 7.40985C22.9653 7.48194 23.0647 7.58642 23.0902 7.72262C23.1351 7.95284 23.0072 8.14257 22.7055 8.29114L23.6115 8.71986L22.9799 8.95537L22.0894 8.52923C21.4759 8.64698 20.9803 8.5912 20.6018 8.36233C20.2237 8.13301 20.0038 7.85881 19.9419 7.53907C19.8977 7.3084 19.9629 7.10191 20.1375 6.9196C20.3129 6.73684 20.5824 6.61122 20.9455 6.54137L21.892 6.36041L21.7497 5.68741L22.3013 5.56055Z" fill="white"/>
<path d="M36.2307 8.7146L34.6089 11.6775L34.5046 11.6209L34.1115 10.6759L34.6939 9.61366C34.3595 9.57193 34.0848 9.49287 33.8697 9.37647C33.6441 9.25343 33.4244 9.08866 33.2125 8.88184C33.0698 8.95561 32.8601 9.01893 32.5814 9.07123C32.7024 9.49163 32.8861 10.0259 33.1317 10.6748L32.795 10.7011C32.1891 9.20473 31.9933 8.25978 32.2092 7.86614C32.2667 7.76031 32.3524 7.69351 32.465 7.66584C32.5767 7.63817 32.6838 7.65178 32.7843 7.70622C32.8833 7.75986 32.9977 7.85602 33.1275 7.99526C33.2375 7.88943 33.317 7.7918 33.366 7.70262C33.415 7.61298 33.5049 7.37118 33.5263 7.23633L36.2307 8.7146ZM35.4238 8.30623L34.1355 7.68665C34.0985 7.86986 34.0258 8.06577 33.9463 8.21164C33.8737 8.34301 33.7845 8.45851 33.6767 8.55872C33.8206 8.71471 33.971 8.8355 34.1281 8.9203C34.4527 9.09642 34.7553 9.1197 35.0357 8.99014L35.4238 8.30623Z" fill="white"/>
<path d="M39.1183 11.0799C39.0443 11.2495 38.8696 11.5539 38.7316 11.7019C38.3593 12.1035 37.865 12.2274 37.2475 12.0732C37.3235 12.5784 37.5006 13.2818 37.7789 14.1833L37.4056 14.1587C36.805 12.1387 36.6486 10.9732 36.9383 10.6616C37.1238 10.4618 37.3429 10.478 37.5958 10.71C37.719 10.8234 37.8444 11.0105 37.9707 11.2705C38.1563 11.2318 38.2923 11.1659 38.378 11.0724C38.4464 10.9995 38.5322 10.7706 38.5662 10.6292L39.1183 11.0799Z" fill="white"/>
<path d="M42.3255 15.0509L41.646 15.4653C41.7785 15.5522 41.892 15.6683 41.9852 15.8137C42.1888 16.1304 42.2378 16.4722 42.1327 16.8404C42.0271 17.2086 41.8423 17.4766 41.579 17.644C41.3026 17.8197 40.9641 17.894 40.5632 17.8672L40.6744 17.0175C41.1184 17.076 41.4421 17.0399 41.6462 16.9103C41.8485 16.7815 41.8856 16.6181 41.7574 16.4196C41.6824 16.3018 41.4252 16.123 40.9872 15.8845L39.4016 16.8918L39.3168 16.7605L39.4581 15.7628L40.0557 15.3832C39.7483 15.2018 39.542 15.0287 39.4362 14.8644C39.29 14.6355 39.2489 14.3698 39.3138 14.0661C39.3796 13.7626 39.547 13.5253 39.8178 13.3526C40.2101 13.1035 40.5458 13.1957 40.8243 13.6303C40.9969 13.8997 41.0709 14.2739 41.0446 14.7545L41.8375 14.2931L42.3255 15.0509ZM40.7467 14.9438L40.797 14.9117C40.7414 14.6824 40.6672 14.4962 40.5748 14.3529C40.4691 14.1877 40.3417 14.0568 40.1917 13.9593C40.0426 13.8613 39.911 13.849 39.796 13.9215C39.7346 13.9611 39.7005 14.0221 39.6946 14.106C39.6875 14.1904 39.7109 14.2743 39.7643 14.3577C39.895 14.5607 40.2225 14.7562 40.7467 14.9438Z" fill="white"/>
<path d="M44.1813 19.0727L40.9499 20.2191L40.8987 20.0799L41.2486 19.1357L43.869 18.2178L44.1813 19.0727Z" fill="white"/>
<path d="M45.0409 22.5309C44.8783 22.6205 44.5286 22.7533 44.3288 22.7875C43.7883 22.8797 43.3199 22.6781 42.9242 22.1821C42.6761 22.6289 42.3848 23.2941 42.0532 24.1775L41.7729 23.9319C42.5335 21.9659 43.124 20.9471 43.5436 20.875C43.8135 20.8289 43.9773 20.9748 44.0359 21.3122C44.0646 21.4774 44.0492 21.7014 43.9906 21.9844C44.1611 22.0657 44.3089 22.0955 44.435 22.074C44.5339 22.0574 44.8108 21.9033 44.9239 21.812L45.0409 22.5309Z" fill="white"/>
<path d="M19.3717 4.25803L20.0449 4.19944C20.2166 4.18459 20.4215 4.21518 20.6601 4.29144C20.8981 4.36769 21.1161 4.4878 21.3145 4.65122C21.5134 4.8152 21.8395 4.97614 22.3489 5.70796L21.9726 6.0295C21.6737 5.61225 21.4808 5.35481 21.3939 5.25652C21.3067 5.15811 21.1684 5.07679 20.98 5.0128C20.7918 4.94892 20.5691 4.92778 20.3109 4.95027L19.6538 5.0074L19.3717 4.25803Z" fill="white"/>
<path d="M17.2692 9.10192C17.347 8.99643 17.5166 8.7228 17.7781 8.28125L18.324 8.42048C17.8796 9.19415 16.7294 10.7634 16.5572 10.7634L16.0192 10.4071C16.0192 10.4071 17.1905 9.2073 17.2692 9.10192Z" fill="white"/>
<path d="M24.6504 4.90276C24.2867 5.03907 24.1469 5.4245 24.1315 5.65461C24.1232 5.81723 24.2296 5.97604 24.4498 6.13113C24.6696 6.28588 24.9384 6.37428 25.2555 6.39599C25.378 6.40431 25.5043 6.40139 25.6342 6.38665C25.482 6.64679 25.2842 6.8706 25.0421 7.05741C24.8255 6.78591 24.5974 6.64184 24.3575 6.62553C24.2147 6.6162 24.0934 6.65275 23.9928 6.73553C23.8926 6.81875 23.836 6.93257 23.8228 7.07608C23.8138 7.2486 23.8826 7.39908 24.0303 7.52808C24.1772 7.65708 24.376 7.7312 24.6261 7.75043C24.7462 7.7583 24.8738 7.75201 25.0096 7.73131L25.8958 8.85509L26.3412 8.7443L25.4625 7.60321C26.1632 7.31732 26.5349 6.87319 26.5761 6.27126C26.5994 5.93892 26.5086 5.56013 26.2265 5.19102C26.2265 5.19102 25.9996 4.90265 25.5734 4.83213C25.3549 4.79581 25.0489 4.75329 24.6504 4.90276ZM25.7808 6.04262C25.6901 6.13473 25.5896 6.17657 25.4816 6.16982C25.3734 6.15992 25.2834 6.11415 25.2115 6.03238C25.1394 5.95051 25.1079 5.84456 25.1167 5.71433C25.1355 5.44227 25.2073 5.29314 25.465 5.20125C25.5281 5.17876 25.7035 5.19169 25.7615 5.22509C25.9127 5.31248 25.9425 5.47477 25.9305 5.64673C25.9217 5.81881 25.8716 5.95084 25.7808 6.04262Z" fill="white"/>
<path d="M27.4683 5.51835L27.2841 8.29416L27.9917 8.99314L28.156 9.00416L28.4025 5.3916L27.4683 5.51835Z" fill="white"/>
<path d="M8.95777 14.6855L9.29699 14.8824C8.85261 15.656 7.74224 17.5253 7.57263 17.7784L7.17688 17.5253C7.17688 17.5253 8.69623 15.127 8.95777 14.6855Z" fill="white"/>
<path d="M40.5822 26.0289C40.4585 25.8984 40.3204 25.8114 40.1851 25.7877C40.0102 25.757 40.0097 25.4512 39.9594 25.2796L39.7439 24.7014C39.623 24.4523 39.4797 24.1905 39.3092 24.0214C39.091 23.5996 38.7756 23.1119 38.3697 22.7359C36.8353 21.3116 35.5127 20.8081 38.0202 22.7508C38.2927 23.1463 38.6076 23.5109 38.8479 23.9379C39.3718 24.3553 39.5396 25.0946 39.6968 25.7198C39.5917 26.1576 39.2666 26.1679 38.8903 26.3133C38.5961 26.3551 38.3035 26.3972 37.999 26.4388C36.8789 26.4801 35.757 26.3448 34.6466 26.1679C34.5004 26.095 34.3524 26.0326 34.1962 25.9701C34.122 25.865 34.0496 25.7715 33.9657 25.6783C33.9365 25.1979 34.0072 24.8513 34.1693 24.495C34.3442 24.1119 35.1661 22.6625 35.4812 22.7909C35.5709 22.8273 35.6293 22.8634 35.6522 22.9794C35.6112 23.521 35.5792 24.3861 35.9155 24.8553C35.9773 24.8553 36.0304 24.8654 36.0827 24.8764C36.1982 24.5321 35.9877 24.0633 35.9667 23.6986C35.9773 23.4386 35.988 23.1881 35.988 22.9381C36.117 22.0819 36.3294 21.8503 36.6214 21.5493L36.4713 21.5788C36.2452 21.6922 36.0853 21.816 35.9562 22.0418C35.8943 22.0844 35.807 22.1393 35.7178 22.2036C35.3782 22.4509 35.0389 22.823 34.7426 23.1217C34.1855 23.6845 33.7435 24.7753 33.4422 25.2612C33.3168 25.3864 33.1903 25.5221 33.065 25.6574C32.8036 26.1266 33.1806 26.3244 33.1806 26.8131C33.1382 26.866 33.0962 26.9183 33.0437 26.9796C32.8228 27.078 32.4032 27.3534 32.4853 27.5749C32.555 27.7616 32.7543 27.7318 32.9093 27.7449C33.0286 27.7546 33.1574 27.77 33.2115 27.7634C33.1433 27.7067 33.0914 27.6184 33.0613 27.5297C32.9929 27.3337 33.0339 27.3034 33.2007 27.2126C33.4675 27.0676 33.7374 27.0031 34.0498 26.9596C34.1223 26.9183 34.1852 26.8766 34.249 26.8447C34.5525 26.8447 34.7627 26.9911 35.0339 27.0741C35.2015 27.0741 35.433 27.0323 35.5582 27.1571C35.7574 27.0121 35.9155 27.1057 36.0617 27.2511C36.3448 27.2098 36.6474 27.0635 36.9312 27.1676C37.3393 27.1268 37.8002 27.2928 38.1882 27.3873C38.4082 27.5116 38.6908 27.5537 38.9316 27.5749C39.1105 27.6474 39.2889 27.7198 39.4663 27.8028C39.7702 27.845 40.1995 28.0955 39.8644 28.4288C39.4033 28.314 38.9528 28.0434 38.5022 27.8659C38.1147 27.7724 37.7278 27.6682 37.3495 27.5325H36.6684C35.9375 27.5689 34.574 27.3318 34.0291 27.4693L34.029 27.469C33.6831 27.5112 33.6831 27.5112 33.3057 27.6048L33.2116 27.7618C33.2743 27.9281 33.3269 28.0953 33.3793 28.2718V29.3761C33.2847 29.8862 33.1902 30.4083 33.0851 30.9289C32.782 31.4394 32.3624 31.8664 31.8492 32.1586C31.7025 32.1586 31.5559 32.1693 31.3987 32.1797C31.1788 32.0756 31.0634 31.7527 30.7803 31.8568C30.5815 32.1169 30.854 32.6068 30.6341 32.8255C30.4667 32.8044 30.3611 32.7625 30.2149 32.6685C30.1204 32.4708 30.0259 32.2837 29.9318 32.0956C29.4287 32.2731 29.5444 32.8571 29.4389 33.2838C29.3872 33.3255 29.3351 33.3668 29.2719 33.409C29.2825 33.4608 29.2927 33.5131 29.3037 33.5751C29.5131 33.7109 29.7536 33.8044 29.8057 34.0647C29.743 34.2315 29.6803 34.4715 29.523 34.5756C29.8693 34.8262 29.9214 35.4206 29.8481 35.8054C29.7536 35.8462 29.5963 35.9096 29.5548 36.0032C29.4497 36.0348 29.3446 36.0664 29.2399 36.0967C28.894 36.4091 28.7475 36.566 28.5902 36.993C28.4338 37.2016 28.3393 37.5768 28.266 37.8273L28.402 37.858C28.4338 37.7324 28.4648 37.5874 28.5487 37.5042C28.58 37.3578 28.6116 37.2221 28.6432 37.0872C28.8527 36.9825 28.978 36.7324 29.0937 36.5346C29.3658 36.3261 29.3658 36.3261 29.4811 36.191C29.6697 36.1177 29.8792 36.1075 30.0778 36.0964C30.3401 36.2225 30.3083 36.191 30.3083 36.5027C30.1834 36.5866 30.0574 36.6696 29.9316 36.7533C29.701 36.9825 29.4705 37.2114 29.2293 37.4514C29.0831 37.8789 28.8729 38.2857 28.8106 38.7336C28.8318 38.9516 28.8525 39.181 28.8729 39.4098C28.9259 39.5974 29.0411 39.8267 28.8525 39.9514C28.1502 39.8367 27.9727 38.9418 27.8047 38.3793C27.6609 37.193 27.811 36.6795 28.5485 35.836C28.7163 35.6906 28.8316 35.6383 28.8629 35.4206C27.7781 35.0435 26.4195 32.583 28.1713 31.3358C28.7897 31.137 28.4646 32.0958 28.4336 32.3774C28.4643 32.4922 28.4857 32.6068 28.5067 32.7215C28.5897 32.8467 28.6632 32.9721 28.7373 33.1072C28.8523 33.1592 28.9892 33.2527 29.0727 33.3462L29.0935 33.2216C28.8727 33.117 28.7684 32.6804 28.726 32.4396C28.6739 31.7426 28.9566 31.1691 29.6271 30.9706L29.7221 30.8463C29.3859 30.5999 28.9535 30.6802 28.5467 30.8463C27.9883 31.0731 27.5962 31.3077 27.2454 31.7979C26.8223 32.387 26.7956 32.8668 26.9071 33.3742C27.0992 34.2415 27.5096 34.5388 27.9204 35.0767C28.0842 35.1548 28.2517 35.2774 28.3166 35.4378C28.4314 35.7224 28.2053 35.8337 28.0242 35.9939C27.9906 36.0642 27.9473 36.1262 27.9044 36.1882C27.0373 37.4262 27.3501 38.8017 28.001 39.6465C28.3685 40.1245 28.8318 40.4048 29.4074 40.5269C30.289 40.7141 29.5229 40.2066 29.3659 39.1918V38.7438C29.4599 38.4947 29.5232 38.2232 29.5549 37.953C29.7741 37.6083 29.8694 37.3587 29.9635 37.2123C30.1307 37.1082 30.288 37.004 30.4454 36.9104C30.7183 37.0669 30.6866 37.1609 30.7068 37.5149C30.8433 37.8687 31.0319 38.2135 31.3039 38.4841C31.6396 38.702 31.8278 38.702 32.2159 38.6712L32.3099 38.5143C32.2887 38.4524 32.2686 38.3995 32.2472 38.3481C31.9216 37.8895 31.7967 37.4519 32.2578 36.9932C32.2977 37.0538 32.4435 37.3122 32.6986 37.4576C33.1773 37.73 33.4548 37.7102 34.0281 37.7669C34.4525 37.8091 34.7361 37.9056 34.384 37.3374C33.8293 36.9723 33.9015 36.5874 34.0283 35.9727C34.1789 35.7653 34.4152 35.5432 34.7336 35.3304C36.4315 34.2044 38.4196 32.9062 39.4531 30.4637C39.7353 29.7972 39.9273 29.0772 39.9375 28.7205C40.0929 28.6361 40.3323 28.673 40.4361 28.5623C40.8519 28.1155 40.1671 27.8942 40.0334 27.5805C39.9963 27.4937 39.9914 27.3964 40.0016 27.3037C40.0303 27.0292 40.1877 26.8393 40.4163 26.7054C40.5232 26.6425 40.6274 26.5847 40.68 26.4975C40.7623 26.3588 40.7102 26.1672 40.5822 26.0289ZM33.7985 26.418C33.6099 26.3662 33.4943 26.2616 33.4112 26.0953C33.4517 26.0327 33.4633 25.96 33.5574 25.96C33.851 26.0742 34.0498 26.0953 34.1019 26.4393C34.0079 26.4283 33.9022 26.4181 33.7985 26.418ZM39.3413 26.8452C39.1002 26.8245 38.8589 26.8136 38.6081 26.8035L38.6178 26.7516C38.7543 26.7305 38.8908 26.7094 39.0268 26.6892C39.1523 26.502 39.624 26.2727 39.8016 26.4493C39.7079 26.6475 39.5188 26.7094 39.3413 26.8452ZM37.6752 27.9289C38.1577 28.0439 38.2194 28.5124 37.7804 28.7724C37.7168 28.7206 37.6439 28.6784 37.5702 28.6376C37.4976 28.3977 37.3607 28.0326 37.6752 27.9289ZM37.8638 30.0439L37.7804 30.1485C37.7168 30.1072 37.6542 30.065 37.5909 30.0342C37.6015 29.9713 37.6121 29.9081 37.6121 29.8567C37.6752 29.8461 37.7379 29.8356 37.7901 29.8356C37.8319 29.8871 37.8319 29.8871 37.8638 30.0439ZM36.9205 27.8763C37.0877 28.1267 36.8794 28.3358 36.7743 28.5537C36.5647 28.5124 36.5647 28.5124 36.5223 28.4716C36.4911 28.1478 36.4805 27.7309 36.9205 27.8763ZM36.9629 30.086C36.7954 29.9925 36.7636 29.9819 36.7636 29.7837C36.8264 29.7626 36.8889 29.742 36.9522 29.7209C37.0984 29.8461 37.0048 29.9397 36.9629 30.086ZM37.1615 30.2522C37.5909 30.409 37.2556 30.8677 36.9416 30.9295C36.8992 30.836 36.8992 30.836 36.7743 30.7213C36.7743 30.5025 36.8264 30.43 36.9205 30.2415C37.0047 30.2416 37.0877 30.2416 37.1615 30.2522ZM36.2027 29.3546C36.2265 29.2122 36.3202 29.1116 36.4116 29.1266C36.5031 29.1424 36.5588 29.2702 36.5358 29.4112C36.5124 29.5526 36.4183 29.6537 36.3268 29.6388C36.2343 29.6221 36.1788 29.4956 36.2027 29.3546ZM36.4439 30.181C36.4327 30.2522 36.3854 30.3022 36.3401 30.2943C36.2936 30.2865 36.2658 30.2231 36.2767 30.1519C36.2895 30.0821 36.336 30.0316 36.3825 30.0395C36.4278 30.0466 36.4561 30.1098 36.4439 30.181ZM36.1037 30.4919H36.2606C36.2712 30.6067 36.2919 30.6383 36.2499 30.7318L36.093 30.6906C36.1037 30.6171 36.1037 30.5551 36.1037 30.4919ZM31.2731 32.534C31.493 32.4611 31.5773 32.7018 31.4828 32.8684C31.4201 32.8262 31.3468 32.784 31.2731 32.7423V32.534ZM30.005 33.5115C29.9776 33.3916 29.9943 33.272 30.0411 33.1529C30.1785 33.1635 30.2831 33.2255 30.3741 33.3098C30.2504 33.4587 30.1276 33.5075 30.005 33.5115ZM30.7911 36.1817C30.2991 35.8579 30.205 35.3579 30.0781 34.8162C30.0896 34.7111 30.0994 34.6079 30.0994 34.5135C30.1413 34.5249 30.1939 34.6185 30.2568 34.6708C30.4352 35.0768 30.9484 35.7124 30.7911 36.1817ZM31.4828 38.2961C31.0111 38.098 30.8962 37.3789 30.8962 36.921C30.9386 36.7541 30.9898 36.4421 31.1267 36.3266C31.1895 36.3477 31.2521 36.3793 31.3043 36.4096C31.4201 36.6811 31.273 36.8692 31.273 37.1503C31.4404 37.4939 31.7447 37.953 31.4828 38.2961ZM31.4201 35.1286L31.4404 34.9929L31.5141 35.0034C31.5354 35.1076 31.5248 35.1076 31.4828 35.1919L31.4201 35.1286ZM32.0375 35.8693C31.9332 35.8368 31.86 35.7965 31.7973 35.6914C31.7549 35.1497 32.4045 35.6285 32.0375 35.8693ZM32.3528 35.1286C32.3528 34.9617 32.4257 34.8163 32.5303 34.7113C32.8034 34.8475 32.6877 35.0768 32.4996 35.2644L32.3528 35.1286ZM33.3793 37.4416C32.8656 37.1398 32.8656 37.1398 32.7087 37.0038C32.5931 36.764 32.5409 36.3158 32.8236 36.1814C32.9075 36.3477 32.8549 36.5873 32.9704 36.7022C33.3369 36.7022 32.8864 36.0555 33.3691 35.9826C33.4632 36.3583 33.4729 36.7432 33.5992 37.1188C33.5993 37.3376 33.5993 37.3691 33.3793 37.4416ZM33.2019 34.8373C33.3793 35.0864 33.39 35.0864 33.1692 35.3065C33.0022 35.1708 32.95 34.9002 33.2019 34.8373ZM33.1867 34.2245C33.2725 34.1797 33.3651 34.1902 33.3944 34.2456C33.4236 34.3023 33.3785 34.3839 33.2929 34.4275C33.2076 34.471 33.1149 34.4618 33.0853 34.4051C33.0561 34.3497 33.1014 34.268 33.1867 34.2245ZM33.8625 35.5221C33.7773 35.5662 33.6846 35.557 33.6554 35.5003C33.6263 35.445 33.6713 35.3632 33.7566 35.3194C33.8424 35.2749 33.9358 35.2842 33.9651 35.3407C33.9942 35.3975 33.9482 35.4777 33.8625 35.5221ZM34.102 34.8373C34.029 34.8585 33.9446 34.8791 33.8617 34.9002L33.7774 34.8057C33.7248 34.546 33.7875 34.4407 34.0392 34.3681C34.2177 34.4934 34.1966 34.6497 34.102 34.8373ZM33.852 33.8357L33.9588 33.729L34.0661 33.8357L33.9588 33.9424L33.852 33.8357ZM32.8448 34.0753C32.6142 34.305 32.2891 34.4719 31.9645 34.5343C31.5561 34.7637 31.5561 34.7637 31.4928 34.837C31.4305 34.8159 31.3679 34.7948 31.294 34.7738C30.8959 34.837 30.6554 34.8471 30.6028 34.4201C30.6232 34.1383 30.6232 34.1383 30.6656 34.0449C32.0175 33.2454 32.7935 32.7408 33.4943 30.6902C33.5679 30.2412 33.6409 29.7943 33.7141 29.345C33.735 28.8771 33.7458 28.4185 33.756 27.9598C33.8297 27.7412 33.8617 27.7094 34.0709 27.6264C34.0816 27.5752 34.0814 27.5749 34.0295 27.4704C34.1694 27.7201 35.9561 27.7097 36.0091 27.8758C35.9878 28.5225 35.8941 29.1063 35.7785 29.7523C35.4959 30.4193 35.5171 31.231 34.9299 31.7425C34.3333 32.5046 33.7935 33.6839 32.8448 34.0753ZM35.7159 31.8785C35.6735 31.9512 35.6214 32.0351 35.5688 32.1175C35.3697 32.0235 35.2654 31.9299 35.3908 31.6695C35.4642 31.6379 35.5375 31.6177 35.6003 31.5966C35.6426 31.6905 35.6841 31.7845 35.7159 31.8785ZM34.7102 33.2531L34.5631 33.2743L34.5419 33.1701L34.6997 33.2017L34.7102 33.2531ZM34.9192 33.6802C35.0976 33.9306 34.909 34.1494 34.7102 34.2957C34.4797 34.2641 34.4797 34.181 34.4165 33.92C34.4686 33.5559 34.6785 33.6595 34.9192 33.6802ZM34.8361 34.8004C34.7079 34.865 34.5694 34.8509 34.5251 34.7666C34.4822 34.6831 34.5507 34.5619 34.6782 34.496C34.8054 34.4301 34.9446 34.445 34.9889 34.5289C35.0322 34.6119 34.9642 34.7341 34.8361 34.8004ZM35.0665 32.722C35.003 32.7018 34.9403 32.6904 34.8775 32.6808C34.8147 32.4717 34.8877 32.3781 35.0974 32.3464C35.2327 32.4513 35.1396 32.6073 35.0665 32.722ZM35.2539 33.222L35.3493 33.1595C35.6214 33.1595 35.5688 33.2953 35.5688 33.5031C35.3171 33.4619 35.3171 33.4619 35.2654 33.4206C35.2654 33.3467 35.2654 33.2847 35.2539 33.222ZM35.7574 34.0452C35.6002 34.003 35.6002 34.003 35.548 33.9512C35.5582 33.8888 35.5688 33.8369 35.5688 33.7843C35.7887 33.5656 35.8205 33.7632 35.8418 33.9622L35.7574 34.0452ZM35.9349 32.8261C35.8828 32.8472 35.8205 32.8683 35.7574 32.888C35.6112 32.8155 35.6002 32.534 35.7053 32.4302C35.7786 32.4399 35.8519 32.4609 35.9155 32.482C35.9562 32.5968 36.009 32.6903 35.9349 32.8261ZM36.072 31.5753C36.0092 31.5551 35.935 31.5341 35.8624 31.5134C35.7574 31.367 35.7363 31.1905 35.8312 31.0446C35.9157 31.0336 35.9986 31.0235 36.0831 31.0125C36.2186 31.201 36.1559 31.3776 36.072 31.5753ZM36.208 31.7739L36.2816 31.7428C36.5331 31.8671 36.6062 32.0965 36.4386 32.3464C36.3757 32.3266 36.3025 32.3153 36.2291 32.3056C36.1347 32.1697 36.1656 31.9404 36.208 31.7739ZM36.4386 33.4824C36.3449 33.4508 36.2499 33.431 36.208 33.3467C36.1771 32.9926 36.2186 32.7945 36.6276 32.7945C36.9205 33.0028 36.6685 33.3467 36.4386 33.4824ZM36.7743 31.0125L36.9103 31.0547C37.0569 31.201 37.0984 31.5648 36.8582 31.6378C36.4911 31.5649 36.5542 31.2314 36.7743 31.0125ZM37.424 32.4096C37.3184 32.4926 37.2146 32.5757 37.1091 32.6596L36.9836 32.5546C36.8159 32.1591 36.9104 31.951 37.2875 31.951C37.4342 32.0445 37.424 32.2536 37.424 32.4096ZM37.4134 29.3453L37.2769 29.4403C37.078 29.3875 37.0356 29.3674 36.8991 29.1995C36.8991 28.3661 37.6014 28.7839 37.4134 29.3453ZM38.2582 30.8981C38.2324 31.0786 38.1291 31.2093 38.0277 31.188L38.01 31.1836V31.1906C38.1983 31.4717 38.0207 31.7535 37.8004 31.9299C37.6859 31.8882 37.6015 31.8469 37.5073 31.7535C37.3816 31.3674 37.5383 31.2738 37.8846 31.2109V31.0127C37.7168 30.8467 37.8213 30.6591 37.927 30.4615C38.1673 30.4197 38.1673 30.4825 38.2618 30.6801L38.2521 30.7048C38.2661 30.7619 38.2689 30.8282 38.2582 30.8981ZM38.3249 29.6476C38.2618 29.638 38.1885 29.6274 38.1153 29.6275C38.052 29.4918 38.031 29.1793 38.0944 29.0542C38.5449 28.9921 38.733 29.4499 38.3249 29.6476ZM38.7123 30.2732C38.6392 30.2319 38.5657 30.2006 38.4813 30.169C38.4813 29.8778 38.6807 29.7104 38.9531 29.6687C39.047 29.8567 38.9005 30.2008 38.7123 30.2732ZM39.0056 29.0436C38.9319 29.0344 38.8589 29.0229 38.7856 29.0132C38.6699 28.8669 38.6178 28.6481 38.6602 28.4606C38.8793 28.3244 39.0268 28.4083 39.1836 28.5638C39.2049 28.8459 39.2468 28.8775 39.0056 29.0436Z" fill="white"/>
<path d="M22.3645 35.0767C22.7753 34.539 23.1861 34.2415 23.3764 33.3742C23.489 32.8668 23.4622 32.3871 23.0387 31.7979C22.6883 31.3077 22.2961 31.0731 21.7373 30.8463C21.3305 30.6802 20.8986 30.5999 20.5619 30.8463L20.6565 30.9706C21.3265 31.1691 21.6101 31.7425 21.5575 32.4396C21.516 32.6805 21.4113 33.117 21.191 33.2216L21.2114 33.3462C21.2962 33.2527 21.4327 33.1592 21.5467 33.1072C21.6209 32.9721 21.6938 32.8468 21.7772 32.7215C21.7984 32.6068 21.8196 32.4922 21.851 32.3774C21.8195 32.0958 21.4949 31.1372 22.1136 31.3358C23.8654 32.583 22.506 35.0436 21.4215 35.4206C21.4524 35.6384 21.5691 35.6906 21.7351 35.836C22.474 36.6795 22.6237 37.193 22.4793 38.3793C22.3122 38.9419 22.1333 39.8368 21.4325 39.9514C21.2429 39.8267 21.3587 39.5974 21.4112 39.4098C21.4325 39.181 21.4523 38.9517 21.4735 38.7336C21.4112 38.2857 21.202 37.8788 21.0549 37.4514C20.8136 37.2114 20.5831 36.9825 20.3525 36.7533C20.2272 36.6698 20.1007 36.5868 19.9753 36.5027C19.9753 36.191 19.9446 36.2225 20.2059 36.0964C20.4048 36.1075 20.6149 36.1175 20.803 36.191C20.9185 36.3259 20.9185 36.3259 21.1909 36.5346C21.3057 36.7324 21.4325 36.9825 21.6418 37.0872C21.6731 37.2221 21.7041 37.3578 21.735 37.5042C21.8194 37.5873 21.8506 37.7322 21.883 37.858L22.0185 37.8273C21.9454 37.5768 21.8509 37.2017 21.6935 36.993C21.5363 36.566 21.3901 36.4092 21.0442 36.0967C20.9396 36.0663 20.8349 36.0348 20.7303 36.0032C20.6879 35.9096 20.5314 35.8462 20.4364 35.8054C20.3632 35.4206 20.4161 34.8262 20.7606 34.5756C20.6042 34.4715 20.5416 34.2315 20.4784 34.0647C20.5314 33.8045 20.7723 33.7109 20.9819 33.5751C20.9921 33.5131 21.0018 33.4608 21.0125 33.409C20.9501 33.3668 20.8971 33.3255 20.8454 33.2838C20.7408 32.857 20.8551 32.2731 20.3526 32.0956C20.2586 32.2836 20.1645 32.4708 20.07 32.6685C19.9232 32.7625 19.8185 32.8043 19.6502 32.8255C19.4304 32.6068 19.7034 32.1169 19.5036 31.8568C19.2209 31.7527 19.1056 32.0756 18.8856 32.1797C18.7289 32.1692 18.5823 32.1586 18.4353 32.1586C17.9224 31.8664 17.5024 31.4394 17.1988 30.9289C17.0941 30.4083 17 29.8862 16.906 29.3761V28.2718C16.9576 28.0953 17.0098 27.9281 17.073 27.7618L16.9789 27.6048C16.6012 27.5112 16.6012 27.5112 16.2567 27.469L16.2566 27.4693C15.7101 27.3316 14.3465 27.5689 13.6159 27.5325H12.9349C12.5572 27.6682 12.1699 27.7724 11.7821 27.8659C11.3316 28.0434 10.881 28.314 10.4199 28.4288C10.0846 28.0954 10.514 27.845 10.8183 27.8028C10.9964 27.7198 11.1739 27.6473 11.3528 27.5749C11.5941 27.5537 11.8762 27.5117 12.0961 27.3873C12.4835 27.2928 12.9446 27.1268 13.3536 27.1676C13.6359 27.0635 13.9406 27.2098 14.2229 27.2511C14.37 27.1057 14.5267 27.0121 14.7263 27.1571C14.8521 27.0323 15.0828 27.0741 15.2503 27.0741C15.5226 26.9911 15.7321 26.8447 16.0354 26.8447C16.0991 26.8765 16.1618 26.9182 16.2357 26.9596C16.5471 27.0031 16.8165 27.0676 17.0837 27.2126C17.2506 27.3035 17.2909 27.3337 17.2242 27.5297C17.1936 27.6184 17.142 27.7067 17.0744 27.7634C17.1266 27.77 17.2558 27.7546 17.3757 27.7449C17.5302 27.7318 17.7304 27.7616 17.7992 27.5749C17.8814 27.3534 17.4623 27.078 17.2406 26.9796C17.1884 26.9182 17.1469 26.8659 17.105 26.8131C17.105 26.3242 17.4814 26.1266 17.2204 25.6574C17.0946 25.5221 16.9685 25.3864 16.8428 25.2612C16.542 24.7753 16.0994 23.6845 15.5419 23.1217C15.2461 22.823 14.9082 22.4509 14.5676 22.2036C14.4789 22.1393 14.3901 22.0844 14.3283 22.0418C14.2006 21.816 14.0394 21.6922 13.8137 21.5788L13.664 21.5493C13.9555 21.8503 14.1688 22.0819 14.2965 22.9381C14.2965 23.1881 14.3081 23.4386 14.3177 23.6986C14.2965 24.0633 14.0867 24.5321 14.2021 24.8764C14.255 24.8654 14.3081 24.8553 14.3703 24.8553C14.7056 24.3861 14.6737 23.521 14.6325 22.9793C14.6552 22.8634 14.7149 22.8273 14.8036 22.7909C15.1182 22.6625 15.9406 24.1119 16.1155 24.495C16.2781 24.8513 16.3487 25.1979 16.3197 25.6783C16.2362 25.7715 16.1623 25.865 16.0891 25.9701C15.9319 26.0326 15.7844 26.0949 15.6387 26.1679C14.5274 26.3448 13.4073 26.4801 12.2854 26.4388C11.9814 26.3972 11.6888 26.3551 11.3945 26.3133C11.0182 26.1679 10.6935 26.1574 10.5884 25.7198C10.7452 25.0946 10.9135 24.3553 11.4369 23.9379C11.678 23.5109 11.9921 23.1463 12.2641 22.7508C14.7721 20.8081 13.4495 21.3116 11.9152 22.7359C11.5097 23.1119 11.1933 23.5996 10.9755 24.0214C10.8059 24.1905 10.6628 24.4523 10.5409 24.7014L10.3263 25.2796C10.2756 25.451 10.2756 25.7568 10.0997 25.7877C9.96468 25.8114 9.82583 25.8983 9.70348 26.0289C9.57413 26.1672 9.52279 26.3589 9.605 26.4977C9.65622 26.5847 9.76183 26.6426 9.86778 26.7055C10.097 26.8394 10.2543 27.0293 10.2825 27.3038C10.2932 27.3965 10.2878 27.4937 10.2508 27.5806C10.117 27.8943 9.4329 28.1157 9.84799 28.5624C9.95269 28.6731 10.1912 28.6362 10.3475 28.7206C10.3568 29.0773 10.5489 29.7973 10.8312 30.4638C11.8646 32.9064 13.8535 34.2046 15.5509 35.3305C15.8689 35.5433 16.1056 35.7654 16.2572 35.9728C16.3822 36.5875 16.4561 36.9724 15.8994 37.3375C15.5483 37.9058 15.8318 37.8092 16.2572 37.767C16.8296 37.7103 17.1079 37.7301 17.5862 37.4577C17.842 37.3123 17.9877 37.0539 18.0274 36.9933C18.4885 37.452 18.3627 37.8896 18.0381 38.3482C18.0169 38.3996 17.9958 38.4525 17.9745 38.5144L18.0686 38.6713C18.4568 38.702 18.6454 38.702 18.9802 38.4842C19.2531 38.2136 19.4413 37.8687 19.5778 37.5151C19.599 37.161 19.5671 37.067 19.8396 36.9106C19.9965 37.0041 20.1532 37.1083 20.3211 37.2124C20.4165 37.3588 20.5106 37.6084 20.7305 37.9531C20.7609 38.2233 20.8246 38.4948 20.9187 38.7439V39.1919C20.7623 40.2067 19.9965 40.7142 20.8767 40.527C21.4535 40.4049 21.9164 40.1246 22.2848 39.6467C22.9354 38.8018 23.2482 37.4263 22.3812 36.1883C22.3379 36.1263 22.2942 36.0643 22.2597 35.9941C22.0796 35.8337 21.8542 35.7226 21.9697 35.4379C22.0332 35.2774 22.2016 35.1548 22.3645 35.0767ZM16.7277 25.9598C16.8217 25.9598 16.8324 26.0326 16.8743 26.0951C16.7904 26.2615 16.6755 26.3661 16.4865 26.4179C16.3823 26.418 16.2772 26.4282 16.1831 26.4391C16.2361 26.0951 16.4349 26.074 16.7277 25.9598ZM11.2591 26.6891C11.3943 26.7093 11.5307 26.7304 11.6672 26.7515L11.6778 26.8033C11.4261 26.8135 11.1855 26.8245 10.9452 26.8451C10.7664 26.7093 10.5782 26.6474 10.4832 26.4492C10.6615 26.2726 11.1324 26.5019 11.2591 26.6891ZM20.2444 33.1529C20.2907 33.272 20.308 33.3915 20.2801 33.5115C20.1582 33.5075 20.0341 33.4587 19.9118 33.3098C20.002 33.2253 20.1067 33.1634 20.2444 33.1529ZM19.0122 32.5339V32.7422C18.9388 32.7839 18.8651 32.8261 18.8028 32.8683C18.7082 32.7017 18.7921 32.4609 19.0122 32.5339ZM14.1929 30.6904L14.0352 30.7317C13.9928 30.6381 14.0139 30.6065 14.0244 30.4918H14.1823C14.1823 30.555 14.1823 30.617 14.1929 30.6904ZM13.8735 29.1265C13.9651 29.1115 14.0591 29.2122 14.083 29.3544C14.1069 29.4955 14.0512 29.622 13.9583 29.6386C13.8668 29.6536 13.7727 29.5524 13.7502 29.4111C13.7264 29.2701 13.782 29.1422 13.8735 29.1265ZM13.9451 30.2942C13.8991 30.3021 13.8535 30.252 13.8407 30.1808C13.8296 30.1097 13.8574 30.0465 13.9027 30.0394C13.9489 30.0315 13.9954 30.082 14.0078 30.1518C14.0193 30.223 13.9914 30.2862 13.9451 30.2942ZM13.3647 27.8762C13.8047 27.7308 13.794 28.1477 13.763 28.4715C13.7212 28.5123 13.7212 28.5123 13.5112 28.5536C13.4071 28.3357 13.1969 28.1265 13.3647 27.8762ZM13.3223 30.0859C13.2809 29.9396 13.1858 29.846 13.333 29.7209C13.3957 29.742 13.4587 29.7626 13.5225 29.7837C13.5224 29.9818 13.4906 29.9924 13.3223 30.0859ZM13.5113 30.7213C13.3859 30.836 13.3859 30.836 13.3435 30.9295C13.0295 30.8676 12.6942 30.4089 13.1236 30.2522C13.1969 30.2416 13.281 30.2416 13.3648 30.2416C13.4588 30.43 13.5113 30.5024 13.5113 30.7213ZM12.6108 27.9288C12.9248 28.0325 12.7883 28.3976 12.7146 28.6375C12.6413 28.6783 12.5683 28.7205 12.5061 28.7723C12.0653 28.5123 12.1284 28.0439 12.6108 27.9288ZM12.6942 30.0341C12.6315 30.0648 12.5683 30.107 12.5061 30.1483L12.4213 30.0438C12.4531 29.8869 12.4531 29.8869 12.4955 29.8355C12.5471 29.8355 12.6108 29.846 12.673 29.8566C12.673 29.908 12.6836 29.9713 12.6942 30.0341ZM11.1015 28.5637C11.2592 28.4081 11.405 28.3242 11.6249 28.4604C11.6673 28.648 11.6147 28.8668 11.5001 29.0131C11.4263 29.0228 11.3532 29.0342 11.2805 29.0435C11.0388 28.8774 11.0803 28.8458 11.1015 28.5637ZM11.5732 30.2731C11.3842 30.2005 11.238 29.8566 11.3321 29.6686C11.6041 29.7103 11.8038 29.8776 11.8038 30.1689C11.7198 30.2006 11.6461 30.2318 11.5732 30.2731ZM12.1907 29.054C12.2543 29.1791 12.2331 29.4917 12.1704 29.6274C12.0967 29.6273 12.0237 29.6379 11.9602 29.6475C11.5521 29.4498 11.7403 28.992 12.1907 29.054ZM12.7777 31.7531C12.6836 31.8467 12.6002 31.888 12.4838 31.9297C12.264 31.7533 12.0863 31.4715 12.2753 31.1904V31.1834L12.2577 31.1878C12.1562 31.2089 12.0528 31.0783 12.0262 30.8978C12.0169 30.828 12.0195 30.7616 12.033 30.7045L12.0237 30.6799C12.1178 30.4822 12.1178 30.4194 12.359 30.4611C12.4637 30.6588 12.5684 30.8464 12.4009 31.0124V31.2106C12.7464 31.2735 12.9035 31.367 12.7777 31.7531ZM13.3859 29.1993C13.2494 29.3672 13.207 29.3874 13.0083 29.4401L12.8718 29.3452C12.6836 28.7838 13.3859 28.366 13.3859 29.1993ZM13.3019 32.5545L13.1765 32.6595C13.0718 32.5756 12.9664 32.4926 12.8622 32.4095C12.8622 32.2535 12.8514 32.0444 12.9976 31.9509C13.3753 31.9509 13.4694 32.1591 13.3019 32.5545ZM13.3753 31.0546L13.5112 31.0124C13.7316 31.2312 13.7939 31.5646 13.4283 31.6376C13.1858 31.5648 13.2282 31.2009 13.3753 31.0546ZM14.0767 33.3466C14.0353 33.4309 13.9412 33.4507 13.8462 33.4823C13.6166 33.3466 13.3647 33.0025 13.659 32.7944C14.0669 32.7944 14.1081 32.9925 14.0767 33.3466ZM14.0563 32.3054C13.9832 32.315 13.9093 32.3265 13.8462 32.3462C13.6789 32.0962 13.7526 31.8668 14.0035 31.7426L14.0767 31.7737C14.1186 31.9403 14.1504 32.1696 14.0563 32.3054ZM14.2021 31.0124C14.2869 31.0235 14.3703 31.0336 14.454 31.0445C14.5485 31.1904 14.5272 31.3669 14.4234 31.5133C14.3496 31.5339 14.2764 31.555 14.2137 31.5752C14.1293 31.3775 14.0669 31.2009 14.2021 31.0124ZM14.3705 32.4819C14.4338 32.4608 14.507 32.4398 14.58 32.4301C14.6855 32.5339 14.6739 32.8155 14.5273 32.8879C14.4654 32.8681 14.4024 32.8471 14.3497 32.826C14.2765 32.6902 14.3285 32.5966 14.3705 32.4819ZM14.5691 31.8784C14.6009 31.7844 14.6428 31.6904 14.6852 31.5964C14.7471 31.6175 14.8207 31.6376 14.8946 31.6692C15.0197 31.9297 14.9159 32.0233 14.7162 32.1173C14.6641 32.0349 14.6115 31.951 14.5691 31.8784ZM14.5273 34.0451L14.4444 33.9621C14.4656 33.763 14.4965 33.5654 14.7163 33.7842C14.7163 33.8369 14.7271 33.8888 14.7376 33.9511C14.6853 34.0029 14.6853 34.0029 14.5273 34.0451ZM15.0196 33.4205C14.968 33.4617 14.968 33.4617 14.7161 33.503C14.7161 33.2952 14.664 33.1594 14.936 33.1594L15.0301 33.2219C15.0196 33.2846 15.0196 33.3466 15.0196 33.4205ZM15.1881 32.3463C15.3976 32.3779 15.4703 32.4715 15.408 32.6807C15.3452 32.6903 15.282 32.7018 15.2198 32.7219C15.1457 32.6072 15.0516 32.4512 15.1881 32.3463ZM15.7596 34.7665C15.7163 34.8508 15.5777 34.8649 15.4491 34.8003C15.3215 34.734 15.2531 34.6118 15.2966 34.5288C15.3404 34.4449 15.4793 34.43 15.6067 34.4959C15.7353 34.5618 15.8028 34.683 15.7596 34.7665ZM15.5749 34.2956C15.3761 34.1493 15.1879 33.9305 15.3664 33.68C15.6067 33.6593 15.8169 33.5558 15.869 33.9199C15.8054 34.1809 15.8054 34.264 15.5749 34.2956ZM15.5749 33.253L15.5856 33.2016L15.7434 33.17L15.7221 33.2741L15.5749 33.253ZM16.1831 34.8372C16.089 34.6496 16.0677 34.4932 16.2463 34.368C16.4981 34.4405 16.5599 34.5459 16.5077 34.8056L16.4239 34.9001C16.3408 34.8789 16.2573 34.8584 16.1831 34.8372ZM16.2189 33.8356L16.3262 33.7289L16.4336 33.8356L16.3262 33.9423L16.2189 33.8356ZM16.6296 35.5002C16.6018 35.5569 16.5077 35.5661 16.422 35.522C16.3368 35.4775 16.2919 35.3974 16.3208 35.3406C16.3499 35.2839 16.4428 35.2748 16.5281 35.3193C16.6138 35.3631 16.6588 35.4449 16.6296 35.5002ZM17.5766 37.0038C17.4194 37.1398 17.4194 37.1398 16.9066 37.4416C16.6867 37.369 16.6867 37.3375 16.6867 37.1187C16.8117 36.7431 16.8218 36.3582 16.9159 35.9825C17.3991 36.0553 16.9486 36.702 17.3147 36.702C17.4301 36.5872 17.3779 36.3475 17.4609 36.1813C17.7445 36.3158 17.6915 36.764 17.5766 37.0038ZM17.1994 34.4049C17.1716 34.4616 17.0775 34.4708 16.9927 34.4273C16.9065 34.3836 16.8616 34.3021 16.8908 34.2454C16.92 34.1901 17.0127 34.1795 17.098 34.2243C17.1836 34.2679 17.2295 34.3496 17.1994 34.4049ZM17.1159 35.3064C16.8956 35.0863 16.9064 35.0863 17.0842 34.8372C17.3359 34.9001 17.283 35.1707 17.1159 35.3064ZM17.7865 35.2643C17.5979 35.0767 17.4817 34.8473 17.7547 34.7111C17.8594 34.8162 17.9322 34.9616 17.9322 35.1285L17.7865 35.2643ZM17.4392 34.0751C16.4913 33.6839 15.952 32.5045 15.3544 31.7425C14.7674 31.231 14.7886 30.4192 14.5063 29.7523C14.391 29.1065 14.2961 28.5225 14.2758 27.8758C14.3279 27.7095 16.1182 27.72 16.2565 27.4701C16.2039 27.5749 16.2038 27.5751 16.2144 27.6264C16.4234 27.7094 16.4555 27.7412 16.5284 27.9598C16.5391 28.4185 16.5496 28.8771 16.5708 29.345C16.6438 29.7943 16.7167 30.2412 16.79 30.6902C17.4913 32.7408 18.2683 33.2454 19.6198 34.0449C19.6618 34.1383 19.6618 34.1383 19.6821 34.4201C19.6291 34.8471 19.3888 34.837 18.9905 34.7738C18.9175 34.7949 18.8553 34.8158 18.7917 34.837C18.7289 34.7637 18.7289 34.7637 18.3199 34.5343C17.9953 34.4718 17.6707 34.3049 17.4392 34.0751ZM18.8651 35.1285L18.8028 35.1917C18.7604 35.1074 18.7496 35.1074 18.771 35.0032L18.8441 34.9926L18.8651 35.1285ZM18.4888 35.6913C18.4251 35.7963 18.3523 35.8367 18.2476 35.8692C17.8805 35.6284 18.5307 35.1495 18.4888 35.6913ZM18.8028 38.296C18.5404 37.9529 18.8441 37.4938 19.0122 37.1502C19.0122 36.8691 18.8651 36.681 18.9804 36.4095C19.0335 36.379 19.0961 36.3474 19.1588 36.3265C19.2949 36.442 19.3474 36.754 19.3894 36.9209C19.3894 37.3788 19.2736 38.0979 18.8028 38.296ZM19.4935 36.1815C19.3367 35.7123 19.8508 35.0767 20.0284 34.6707C20.0916 34.6182 20.1437 34.5247 20.1861 34.5134C20.1861 34.6079 20.1954 34.7111 20.2066 34.8161C20.0801 35.3578 19.9861 35.8577 19.4935 36.1815Z" fill="white"/>
<path d="M68.0482 18.1772V35.8537H65.3571V23.7327L62.8437 35.8537H60.965L58.4516 23.7327V35.8537H55.8112V18.1772H59.6194L61.9551 29.4649L64.1892 18.1772H68.0482Z" fill="white"/>
<path d="M75.7828 31.9396H72.8886L72.3047 35.8537H69.6135L72.5585 18.1772H76.1636L79.1086 35.8537H76.3667L75.7828 31.9396ZM75.4274 29.3639L74.3357 21.9651L73.244 29.3639H75.4274Z" fill="white"/>
<path d="M84.6678 36.1062C83.4323 36.1062 82.4252 35.7274 81.6466 34.9699C80.8681 34.1955 80.4788 33.1938 80.4788 31.9649V18.1772H83.1699V31.9649C83.1699 32.4699 83.3053 32.8655 83.5761 33.1517C83.8639 33.4379 84.2277 33.581 84.6678 33.581C85.1079 33.581 85.4633 33.4379 85.7341 33.1517C86.0218 32.8655 86.1657 32.4699 86.1657 31.9649V18.1772H88.806V31.9649C88.806 33.1938 88.4252 34.1955 87.6636 34.9699C86.9019 35.7274 85.9034 36.1062 84.6678 36.1062Z" fill="white"/>
<path d="M97.1726 35.8537L95.2177 28.5558H93.8214V35.8537H91.1302V18.1772H95.3446C96.631 18.1772 97.6549 18.5644 98.4166 19.3388C99.1782 20.0964 99.559 21.1149 99.559 22.3943V24.3388C99.559 25.1468 99.3982 25.8623 99.0767 26.4852C98.7551 27.1081 98.2981 27.5963 97.7057 27.9498L99.9652 35.8537H97.1726ZM93.8214 26.0306H95.2177C95.7424 26.0306 96.1486 25.8875 96.4363 25.6014C96.724 25.3152 96.8679 24.9111 96.8679 24.3893V22.3438C96.8679 21.822 96.724 21.4179 96.4363 21.1317C96.1486 20.8455 95.7424 20.7025 95.2177 20.7025H93.8214V26.0306Z" fill="white"/>
<path d="M106.961 31.9396H104.067L103.483 35.8537H100.792L103.737 18.1772H107.342L110.287 35.8537H107.545L106.961 31.9396ZM106.606 29.3639L105.514 21.9651L104.423 29.3639H106.606Z" fill="white"/>
<path d="M111.858 18.1772H114.829L118.256 30.0457V18.1772H120.896V35.8537H118.053L114.498 24.5408V35.8537H111.858V18.1772Z" fill="white"/>
<path d="M123.325 18.1772H126.016V35.8537H123.325V18.1772Z" fill="white"/>
<path d="M128.446 18.1772H132.66C133.946 18.1772 134.97 18.5644 135.732 19.3388C136.494 20.0964 136.874 21.1149 136.874 22.3943V24.465C136.874 25.7445 136.494 26.7714 135.732 27.5458C134.97 28.3033 133.946 28.6821 132.66 28.6821H131.137V35.8537H128.446V18.1772ZM132.533 26.1569C133.058 26.1569 133.464 26.0138 133.752 25.7276C134.039 25.4414 134.183 25.0374 134.183 24.5155V22.3438C134.183 21.822 134.039 21.4179 133.752 21.1317C133.464 20.8455 133.058 20.7025 132.533 20.7025H131.137V26.1569H132.533Z" fill="white"/>
<path d="M142.711 36.1062C141.475 36.1062 140.468 35.7274 139.69 34.9699C138.911 34.1955 138.522 33.1938 138.522 31.9649V18.1772H141.213V31.9649C141.213 32.4699 141.349 32.8655 141.619 33.1517C141.907 33.4379 142.271 33.581 142.711 33.581C143.151 33.581 143.507 33.4379 143.777 33.1517C144.065 32.8655 144.209 32.4699 144.209 31.9649V18.1772H146.849V31.9649C146.849 33.1938 146.468 34.1955 145.707 34.9699C144.945 35.7274 143.947 36.1062 142.711 36.1062Z" fill="white"/>
<path d="M155.216 35.8537L153.261 28.5558H151.865V35.8537H149.173V18.1772H153.388C154.674 18.1772 155.698 18.5644 156.46 19.3388C157.221 20.0964 157.602 21.1149 157.602 22.3943V24.3388C157.602 25.1468 157.441 25.8623 157.12 26.4852C156.798 27.1081 156.341 27.5963 155.749 27.9498L158.008 35.8537H155.216ZM151.865 26.0306H153.261C153.786 26.0306 154.192 25.8875 154.48 25.6014C154.767 25.3152 154.911 24.9111 154.911 24.3893V22.3438C154.911 21.822 154.767 21.4179 154.48 21.1317C154.192 20.8455 153.786 20.7025 153.261 20.7025H151.865V26.0306Z" fill="white"/>
</svg>
